<svg xmlns="http://www.w3.org/2000/svg" height="24" viewBox="0 -960 960 960" width="24"><path d="M170.001-130.001v-699.998h59.998v80h100.002v-80h299.998v80h100.002v-80h59.998v699.998h-59.998v-80H629.999v80H330.001v-80H229.999v80h-59.998Zm59.998-139.998h100.002v-100.002H229.999v100.002Zm0-160h100.002v-100.002H229.999v100.002Zm0-160h100.002v-100.002H229.999v100.002Zm400 320h100.002v-100.002H629.999v100.002Zm0-160h100.002v-100.002H629.999v100.002Zm0-160h100.002v-100.002H629.999v100.002Zm-240 400h180.002v-580.002H389.999v580.002Zm0-580.002h180.002-180.002Z"/></svg>